<svg data-v-423bf9ae="" xmlns="http://www.w3.org/2000/svg" viewBox="0 0 831.7198266243911 163" class="iconAbove"><!----><!----><!----><g data-v-423bf9ae="" id="4247bdd7-26ef-455a-be43-37f9ba25cde4" fill="#000000" transform="matrix(4.160887634018687,0,0,4.160887634018687,-1.0402185336885168,97.71566944629879)"><path d="M9.58 11.31L9.58 11.31Q9.65 11.49 9.65 11.62L9.65 11.62L9.65 11.62Q9.65 11.91 9.44 12.12L9.44 12.12L9.44 12.12Q9.23 12.33 8.92 12.33L8.92 12.33L8.92 12.33Q8.71 12.33 8.52 12.21L8.52 12.21L8.52 12.21Q8.33 12.10 8.25 11.89L8.25 11.89L7.46 9.93L2.44 9.93L1.64 11.89L1.64 11.89Q1.54 12.10 1.36 12.21L1.36 12.21L1.36 12.21Q1.18 12.33 0.97 12.33L0.97 12.33L0.97 12.33Q0.66 12.33 0.46 12.12L0.46 12.12L0.46 12.12Q0.25 11.90 0.25 11.61L0.25 11.61L0.25 11.61Q0.25 11.47 0.32 11.28L0.32 11.28L4.26 1.89L4.26 1.89Q4.47 1.40 4.94 1.40L4.94 1.40L4.94 1.40Q5.45 1.40 5.63 1.89L5.63 1.89L9.58 11.31ZM2.93 8.72L6.97 8.72L4.97 3.74L2.93 8.72ZM17.71 1.40L17.71 1.40Q18.03 1.40 18.23 1.60L18.23 1.60L18.23 1.60Q18.42 1.79 18.42 2.11L18.42 2.11L18.42 8.50L18.42 8.50Q18.42 9.59 17.91 10.48L17.91 10.48L17.91 10.48Q17.40 11.37 16.53 11.88L16.53 11.88L16.53 11.88Q15.65 12.39 14.57 12.39L14.57 12.39L14.57 12.39Q13.50 12.39 12.61 11.88L12.61 11.88L12.61 11.88Q11.72 11.37 11.21 10.48L11.21 10.48L11.21 10.48Q10.71 9.59 10.71 8.50L10.71 8.50L10.71 8.50Q10.71 7.41 11.18 6.52L11.18 6.52L11.18 6.52Q11.65 5.63 12.47 5.12L12.47 5.12L12.47 5.12Q13.29 4.62 14.29 4.62L14.29 4.62L14.29 4.62Q15.11 4.62 15.81 4.96L15.81 4.96L15.81 4.96Q16.51 5.29 17.00 5.89L17.00 5.89L17.00 2.11L17.00 2.11Q17.00 1.79 17.20 1.60L17.20 1.60L17.20 1.60Q17.40 1.40 17.71 1.40L17.71 1.40ZM14.57 11.13L14.57 11.13Q15.27 11.13 15.84 10.79L15.84 10.79L15.84 10.79Q16.41 10.44 16.73 9.84L16.73 9.84L16.73 9.84Q17.05 9.24 17.05 8.50L17.05 8.50L17.05 8.50Q17.05 7.76 16.73 7.16L16.73 7.16L16.73 7.16Q16.41 6.57 15.84 6.22L15.84 6.22L15.84 6.22Q15.27 5.88 14.57 5.88L14.57 5.88L14.57 5.88Q13.87 5.88 13.31 6.22L13.31 6.22L13.31 6.22Q12.74 6.57 12.41 7.16L12.41 7.16L12.41 7.16Q12.08 7.76 12.08 8.50L12.08 8.50L12.08 8.50Q12.08 9.24 12.41 9.84L12.41 9.84L12.41 9.84Q12.74 10.44 13.31 10.79L13.31 10.79L13.31 10.79Q13.87 11.13 14.57 11.13L14.57 11.13ZM26.84 4.77L26.84 4.77Q27.02 4.86 27.12 5.00L27.12 5.00L27.12 5.00Q27.22 5.15 27.22 5.33L27.22 5.33L27.22 5.33Q27.22 5.46 27.15 5.60L27.15 5.60L24.18 11.86L24.18 11.86Q23.97 12.32 23.53 12.32L23.53 12.32L23.53 12.32Q23.30 12.32 23.14 12.21L23.14 12.21L23.14 12.21Q22.99 12.11 22.86 11.86L22.86 11.86L19.89 5.60L19.89 5.60Q19.84 5.49 19.84 5.35L19.84 5.35L19.84 5.35Q19.84 4.97 20.23 4.77L20.23 4.77L20.23 4.77Q20.36 4.70 20.52 4.70L20.52 4.70L20.52 4.70Q20.69 4.70 20.85 4.79L20.85 4.79L20.85 4.79Q21 4.89 21.08 5.05L21.08 5.05L23.52 10.30L25.93 5.05L25.93 5.05Q26.01 4.89 26.17 4.79L26.17 4.79L26.17 4.79Q26.33 4.70 26.52 4.70L26.52 4.70L26.52 4.70Q26.70 4.70 26.84 4.77L26.84 4.77ZM35.49 8.39L35.49 8.39Q35.49 8.65 35.31 8.83L35.31 8.83L35.31 8.83Q35.13 9.00 34.85 9.00L34.85 9.00L29.53 9.00L29.53 9.00Q29.68 9.98 30.42 10.58L30.42 10.58L30.42 10.58Q31.15 11.19 32.21 11.19L32.21 11.19L32.21 11.19Q32.63 11.19 33.09 11.03L33.09 11.03L33.09 11.03Q33.54 10.88 33.84 10.65L33.84 10.65L33.84 10.65Q34.03 10.50 34.30 10.50L34.30 10.50L34.30 10.50Q34.57 10.50 34.72 10.64L34.72 10.64L34.72 10.64Q34.97 10.85 34.97 11.12L34.97 11.12L34.97 11.12Q34.97 11.37 34.75 11.54L34.75 11.54L34.75 11.54Q34.27 11.91 33.57 12.15L33.57 12.15L33.57 12.15Q32.86 12.39 32.21 12.39L32.21 12.39L32.21 12.39Q31.07 12.39 30.16 11.89L30.16 11.89L30.16 11.89Q29.25 11.40 28.74 10.51L28.74 10.51L28.74 10.51Q28.22 9.63 28.22 8.51L28.22 8.51L28.22 8.51Q28.22 7.39 28.71 6.50L28.71 6.50L28.71 6.50Q29.19 5.61 30.05 5.12L30.05 5.12L30.05 5.12Q30.91 4.62 32.00 4.62L32.00 4.62L32.00 4.62Q33.08 4.62 33.87 5.10L33.87 5.10L33.87 5.10Q34.65 5.57 35.07 6.43L35.07 6.43L35.07 6.43Q35.49 7.28 35.49 8.39L35.49 8.39ZM32.00 5.82L32.00 5.82Q30.98 5.82 30.35 6.38L30.35 6.38L30.35 6.38Q29.71 6.94 29.54 7.88L29.54 7.88L34.20 7.88L34.20 7.88Q34.08 6.94 33.50 6.38L33.50 6.38L33.50 6.38Q32.93 5.82 32.00 5.82L32.00 5.82ZM41.12 4.61L41.12 4.61Q42.08 4.61 42.85 5.03L42.85 5.03L42.85 5.03Q43.62 5.45 44.06 6.25L44.06 6.25L44.06 6.25Q44.49 7.06 44.49 8.19L44.49 8.19L44.49 11.63L44.49 11.63Q44.49 11.94 44.29 12.14L44.29 12.14L44.29 12.14Q44.09 12.35 43.78 12.35L43.78 12.35L43.78 12.35Q43.47 12.35 43.27 12.14L43.27 12.14L43.27 12.14Q43.06 11.94 43.06 11.63L43.06 11.63L43.06 8.19L43.06 8.19Q43.06 7.06 42.46 6.47L42.46 6.47L42.46 6.47Q41.85 5.89 40.84 5.89L40.84 5.89L40.84 5.89Q40.25 5.89 39.77 6.13L39.77 6.13L39.77 6.13Q39.28 6.37 39.01 6.78L39.01 6.78L39.01 6.78Q38.74 7.18 38.74 7.69L38.74 7.69L38.74 11.63L38.74 11.63Q38.74 11.94 38.54 12.14L38.54 12.14L38.54 12.14Q38.35 12.35 38.02 12.35L38.02 12.35L38.02 12.35Q37.72 12.35 37.51 12.14L37.51 12.14L37.51 12.14Q37.31 11.94 37.31 11.63L37.31 11.63L37.31 5.39L37.31 5.39Q37.31 5.07 37.51 4.87L37.51 4.87L37.51 4.87Q37.72 4.68 38.02 4.68L38.02 4.68L38.02 4.68Q38.35 4.68 38.54 4.87L38.54 4.87L38.54 4.87Q38.74 5.07 38.74 5.39L38.74 5.39L38.74 5.54L38.74 5.54Q39.19 5.10 39.80 4.85L39.80 4.85L39.80 4.85Q40.42 4.61 41.12 4.61L41.12 4.61ZM50.12 10.93L50.12 10.93Q50.37 10.93 50.55 11.13L50.55 11.13L50.55 11.13Q50.72 11.33 50.72 11.63L50.72 11.63L50.72 11.63Q50.72 11.94 50.49 12.14L50.49 12.14L50.49 12.14Q50.26 12.33 49.90 12.33L49.90 12.33L49.64 12.33L49.64 12.33Q48.96 12.33 48.39 11.98L48.39 11.98L48.39 11.98Q47.82 11.62 47.50 11.00L47.50 11.00L47.50 11.00Q47.18 10.39 47.18 9.62L47.18 9.62L47.18 6.16L46.54 6.16L46.54 6.16Q46.24 6.16 46.06 5.99L46.06 5.99L46.06 5.99Q45.88 5.82 45.88 5.57L45.88 5.57L45.88 5.57Q45.88 5.29 46.06 5.12L46.06 5.12L46.06 5.12Q46.24 4.96 46.54 4.96L46.54 4.96L47.18 4.96L47.18 2.94L47.18 2.94Q47.18 2.63 47.38 2.44L47.38 2.44L47.38 2.44Q47.57 2.24 47.88 2.24L47.88 2.24L47.88 2.24Q48.19 2.24 48.38 2.44L48.38 2.44L48.38 2.44Q48.58 2.63 48.58 2.94L48.58 2.94L48.58 4.96L49.77 4.96L49.77 4.96Q50.06 4.96 50.25 5.12L50.25 5.12L50.25 5.12Q50.43 5.29 50.43 5.57L50.43 5.57L50.43 5.57Q50.43 5.82 50.25 5.99L50.25 5.99L50.25 5.99Q50.06 6.16 49.77 6.16L49.77 6.16L48.58 6.16L48.58 9.62L48.58 9.62Q48.58 10.18 48.89 10.56L48.89 10.56L48.89 10.56Q49.20 10.93 49.64 10.93L49.64 10.93L50.12 10.93ZM58.79 4.66L58.79 4.66Q59.11 4.66 59.30 4.86L59.30 4.86L59.30 4.86Q59.50 5.05 59.50 5.38L59.50 5.38L59.50 11.62L59.50 11.62Q59.50 11.93 59.30 12.13L59.30 12.13L59.30 12.13Q59.11 12.33 58.79 12.33L58.79 12.33L58.79 12.33Q58.48 12.33 58.28 12.13L58.28 12.13L58.28 12.13Q58.07 11.93 58.07 11.62L58.07 11.62L58.07 11.47L58.07 11.47Q57.62 11.91 57.01 12.16L57.01 12.16L57.01 12.16Q56.39 12.40 55.69 12.40L55.69 12.40L55.69 12.40Q54.73 12.40 53.96 11.98L53.96 11.98L53.96 11.98Q53.19 11.56 52.75 10.76L52.75 10.76L52.75 10.76Q52.32 9.95 52.32 8.82L52.32 8.82L52.32 5.38L52.32 5.38Q52.32 5.07 52.52 4.86L52.52 4.86L52.52 4.86Q52.72 4.66 53.03 4.66L53.03 4.66L53.03 4.66Q53.34 4.66 53.54 4.86L53.54 4.86L53.54 4.86Q53.75 5.07 53.75 5.38L53.75 5.38L53.75 8.82L53.75 8.82Q53.75 9.95 54.36 10.54L54.36 10.54L54.36 10.54Q54.96 11.12 55.97 11.12L55.97 11.12L55.97 11.12Q56.56 11.12 57.04 10.88L57.04 10.88L57.04 10.88Q57.53 10.64 57.80 10.23L57.80 10.23L57.80 10.23Q58.07 9.83 58.07 9.32L58.07 9.32L58.07 5.38L58.07 5.38Q58.07 5.05 58.28 4.86L58.28 4.86L58.28 4.86Q58.48 4.66 58.79 4.66L58.79 4.66ZM65.77 4.59L65.77 4.59Q66.51 4.59 66.93 4.82L66.93 4.82L66.93 4.82Q67.35 5.04 67.35 5.38L67.35 5.38L67.35 5.38Q67.35 5.47 67.34 5.52L67.34 5.52L67.34 5.52Q67.21 5.96 66.78 5.96L66.78 5.96L66.78 5.96Q66.71 5.96 66.57 5.94L66.57 5.94L66.57 5.94Q66.01 5.84 65.66 5.84L65.66 5.84L65.66 5.84Q64.65 5.84 64.04 6.30L64.04 6.30L64.04 6.30Q63.42 6.76 63.42 7.55L63.42 7.55L63.42 11.63L63.42 11.63Q63.42 11.97 63.25 12.15L63.25 12.15L63.25 12.15Q63.07 12.33 62.72 12.33L62.72 12.33L62.72 12.33Q62.38 12.33 62.20 12.16L62.20 12.16L62.20 12.16Q62.02 11.98 62.02 11.63L62.02 11.63L62.02 5.38L62.02 5.38Q62.02 5.04 62.20 4.86L62.20 4.86L62.20 4.86Q62.38 4.68 62.72 4.68L62.72 4.68L62.72 4.68Q63.42 4.68 63.42 5.38L63.42 5.38L63.42 5.64L63.42 5.64Q63.84 5.15 64.46 4.87L64.46 4.87L64.46 4.87Q65.07 4.59 65.77 4.59L65.77 4.59ZM75.70 8.39L75.70 8.39Q75.70 8.65 75.52 8.83L75.52 8.83L75.52 8.83Q75.33 9.00 75.05 9.00L75.05 9.00L69.73 9.00L69.73 9.00Q69.89 9.98 70.62 10.58L70.62 10.58L70.62 10.58Q71.36 11.19 72.42 11.19L72.42 11.19L72.42 11.19Q72.84 11.19 73.30 11.03L73.30 11.03L73.30 11.03Q73.75 10.88 74.05 10.65L74.05 10.65L74.05 10.65Q74.24 10.50 74.51 10.50L74.51 10.50L74.51 10.50Q74.77 10.50 74.93 10.64L74.93 10.64L74.93 10.64Q75.18 10.85 75.18 11.12L75.18 11.12L75.18 11.12Q75.18 11.37 74.96 11.54L74.96 11.54L74.96 11.54Q74.48 11.91 73.77 12.15L73.77 12.15L73.77 12.15Q73.07 12.39 72.42 12.39L72.42 12.39L72.42 12.39Q71.27 12.39 70.36 11.89L70.36 11.89L70.36 11.89Q69.45 11.40 68.94 10.51L68.94 10.51L68.94 10.51Q68.43 9.63 68.43 8.51L68.43 8.51L68.43 8.51Q68.43 7.39 68.92 6.50L68.92 6.50L68.92 6.50Q69.40 5.61 70.26 5.12L70.26 5.12L70.26 5.12Q71.12 4.62 72.21 4.62L72.21 4.62L72.21 4.62Q73.29 4.62 74.07 5.10L74.07 5.10L74.07 5.10Q74.86 5.57 75.28 6.43L75.28 6.43L75.28 6.43Q75.70 7.28 75.70 8.39L75.70 8.39ZM72.21 5.82L72.21 5.82Q71.19 5.82 70.55 6.38L70.55 6.38L70.55 6.38Q69.92 6.94 69.75 7.88L69.75 7.88L74.41 7.88L74.41 7.88Q74.28 6.94 73.71 6.38L73.71 6.38L73.71 6.38Q73.14 5.82 72.21 5.82L72.21 5.82ZM80.21 4.62L80.21 4.62Q81.12 4.62 81.84 4.91L81.84 4.91L81.84 4.91Q82.56 5.21 82.98 5.73L82.98 5.73L82.98 5.73Q83.16 5.95 83.16 6.17L83.16 6.17L83.16 6.17Q83.16 6.41 82.92 6.61L82.92 6.61L82.92 6.61Q82.77 6.72 82.53 6.72L82.53 6.72L82.53 6.72Q82.17 6.72 81.87 6.45L81.87 6.45L81.87 6.45Q81.52 6.13 81.13 6.00L81.13 6.00L81.13 6.00Q80.74 5.87 80.18 5.87L80.18 5.87L80.18 5.87Q79.53 5.87 79.12 6.08L79.12 6.08L79.12 6.08Q78.71 6.30 78.71 6.69L78.71 6.69L78.71 6.69Q78.71 6.97 78.85 7.16L78.85 7.16L78.85 7.16Q78.99 7.35 79.38 7.51L79.38 7.51L79.38 7.51Q79.77 7.67 80.51 7.83L80.51 7.83L80.51 7.83Q82.04 8.13 82.68 8.68L82.68 8.68L82.68 8.68Q83.31 9.23 83.31 10.09L83.31 10.09L83.31 10.09Q83.31 10.74 82.96 11.26L82.96 11.26L82.96 11.26Q82.61 11.79 81.94 12.09L81.94 12.09L81.94 12.09Q81.26 12.39 80.30 12.39L80.30 12.39L80.30 12.39Q79.35 12.39 78.51 12.10L78.51 12.10L78.51 12.10Q77.67 11.80 77.20 11.33L77.20 11.33L77.20 11.33Q77.01 11.14 77.01 10.89L77.01 10.89L77.01 10.89Q77.01 10.56 77.29 10.35L77.29 10.35L77.29 10.35Q77.56 10.15 77.78 10.15L77.78 10.15L77.78 10.15Q78.06 10.15 78.32 10.40L78.32 10.40L78.32 10.40Q78.58 10.70 79.11 10.91L79.11 10.91L79.11 10.91Q79.65 11.13 80.25 11.13L80.25 11.13L80.25 11.13Q81.05 11.13 81.49 10.86L81.49 10.86L81.49 10.86Q81.93 10.60 81.93 10.15L81.93 10.15L81.93 10.15Q81.93 9.72 81.49 9.43L81.49 9.43L81.49 9.43Q81.06 9.14 80.02 8.95L80.02 8.95L80.02 8.95Q77.34 8.43 77.34 6.73L77.34 6.73L77.34 6.73Q77.34 6.05 77.74 5.57L77.74 5.57L77.74 5.57Q78.15 5.10 78.81 4.86L78.81 4.86L78.81 4.86Q79.46 4.62 80.21 4.62L80.21 4.62ZM89.36 5.39L89.36 5.39Q89.36 5.07 89.57 4.87L89.57 4.87L89.57 4.87Q89.77 4.68 90.08 4.68L90.08 4.68L90.08 4.68Q90.40 4.68 90.59 4.87L90.59 4.87L90.59 4.87Q90.79 5.07 90.79 5.39L90.79 5.39L90.79 11.62L90.79 11.62Q90.79 11.93 90.59 12.13L90.59 12.13L90.59 12.13Q90.40 12.33 90.08 12.33L90.08 12.33L90.08 12.33Q89.77 12.33 89.57 12.13L89.57 12.13L89.57 12.13Q89.36 11.93 89.36 11.62L89.36 11.62L89.36 5.39ZM90.08 1.58L90.08 1.58Q90.45 1.58 90.73 1.85L90.73 1.85L90.73 1.85Q91.00 2.13 91.00 2.51L91.00 2.51L91.00 2.51Q91.00 2.88 90.73 3.16L90.73 3.16L90.73 3.16Q90.45 3.43 90.08 3.43L90.08 3.43L90.08 3.43Q89.70 3.43 89.43 3.16L89.43 3.16L89.43 3.16Q89.15 2.88 89.15 2.51L89.15 2.51L89.15 2.51Q89.15 2.13 89.43 1.85L89.43 1.85L89.43 1.85Q89.70 1.58 90.08 1.58L90.08 1.58ZM97.26 4.61L97.26 4.61Q98.22 4.61 98.99 5.03L98.99 5.03L98.99 5.03Q99.76 5.45 100.20 6.25L100.20 6.25L100.20 6.25Q100.63 7.06 100.63 8.19L100.63 8.19L100.63 11.63L100.63 11.63Q100.63 11.94 100.43 12.14L100.43 12.14L100.43 12.14Q100.23 12.35 99.92 12.35L99.92 12.35L99.92 12.35Q99.61 12.35 99.41 12.14L99.41 12.14L99.41 12.14Q99.20 11.94 99.20 11.63L99.20 11.63L99.20 8.19L99.20 8.19Q99.20 7.06 98.60 6.47L98.60 6.47L98.60 6.47Q97.99 5.89 96.98 5.89L96.98 5.89L96.98 5.89Q96.39 5.89 95.91 6.13L95.91 6.13L95.91 6.13Q95.42 6.37 95.15 6.78L95.15 6.78L95.15 6.78Q94.88 7.18 94.88 7.69L94.88 7.69L94.88 11.63L94.88 11.63Q94.88 11.94 94.68 12.14L94.68 12.14L94.68 12.14Q94.49 12.35 94.16 12.35L94.16 12.35L94.16 12.35Q93.86 12.35 93.65 12.14L93.65 12.14L93.65 12.14Q93.45 11.94 93.45 11.63L93.45 11.63L93.45 5.39L93.45 5.39Q93.45 5.07 93.65 4.87L93.65 4.87L93.65 4.87Q93.86 4.68 94.16 4.68L94.16 4.68L94.16 4.68Q94.49 4.68 94.68 4.87L94.68 4.87L94.68 4.87Q94.88 5.07 94.88 5.39L94.88 5.39L94.88 5.54L94.88 5.54Q95.33 5.10 95.94 4.85L95.94 4.85L95.94 4.85Q96.56 4.61 97.26 4.61L97.26 4.61ZM110.50 1.40L110.50 1.40Q112.08 1.40 113.32 2.10L113.32 2.10L113.32 2.10Q114.55 2.80 115.23 4.04L115.23 4.04L115.23 4.04Q115.92 5.28 115.92 6.86L115.92 6.86L115.92 6.86Q115.92 8.44 115.23 9.69L115.23 9.69L115.23 9.69Q114.55 10.93 113.32 11.63L113.32 11.63L113.32 11.63Q112.08 12.33 110.50 12.33L110.50 12.33L107.97 12.33L107.97 12.33Q107.66 12.33 107.45 12.12L107.45 12.12L107.45 12.12Q107.24 11.91 107.24 11.61L107.24 11.61L107.24 2.13L107.24 2.13Q107.24 1.81 107.45 1.60L107.45 1.60L107.45 1.60Q107.66 1.40 107.97 1.40L107.97 1.40L110.50 1.40ZM110.50 11.05L110.50 11.05Q111.66 11.05 112.58 10.51L112.58 10.51L112.58 10.51Q113.50 9.98 114.01 9.02L114.01 9.02L114.01 9.02Q114.52 8.06 114.52 6.86L114.52 6.86L114.52 6.86Q114.52 5.66 114.01 4.70L114.01 4.70L114.01 4.70Q113.50 3.75 112.58 3.22L112.58 3.22L112.58 3.22Q111.66 2.69 110.50 2.69L110.50 2.69L108.70 2.69L108.70 11.05L110.50 11.05ZM121.53 4.62L121.53 4.62Q122.64 4.62 123.52 5.12L123.52 5.12L123.52 5.12Q124.39 5.61 124.89 6.50L124.89 6.50L124.89 6.50Q125.38 7.38 125.38 8.51L125.38 8.51L125.38 8.51Q125.38 9.63 124.89 10.51L124.89 10.51L124.89 10.51Q124.40 11.40 123.53 11.89L123.53 11.89L123.53 11.89Q122.65 12.39 121.53 12.39L121.53 12.39L121.53 12.39Q120.41 12.39 119.53 11.89L119.53 11.89L119.53 11.89Q118.65 11.40 118.16 10.51L118.16 10.51L118.16 10.51Q117.67 9.63 117.67 8.51L117.67 8.51L117.67 8.51Q117.67 7.38 118.16 6.50L118.16 6.50L118.16 6.50Q118.65 5.61 119.53 5.12L119.53 5.12L119.53 5.12Q120.41 4.62 121.53 4.62L121.53 4.62ZM121.53 5.88L121.53 5.88Q120.82 5.88 120.25 6.22L120.25 6.22L120.25 6.22Q119.69 6.55 119.36 7.15L119.36 7.15L119.36 7.15Q119.04 7.76 119.04 8.51L119.04 8.51L119.04 8.51Q119.04 9.27 119.36 9.86L119.36 9.86L119.36 9.86Q119.69 10.46 120.25 10.79L120.25 10.79L120.25 10.79Q120.82 11.13 121.53 11.13L121.53 11.13L121.53 11.13Q122.25 11.13 122.82 10.79L122.82 10.79L122.82 10.79Q123.38 10.46 123.70 9.86L123.70 9.86L123.70 9.86Q124.01 9.27 124.01 8.51L124.01 8.51L124.01 8.51Q124.01 7.76 123.70 7.15L123.70 7.15L123.70 7.15Q123.38 6.55 122.82 6.22L122.82 6.22L122.82 6.22Q122.25 5.88 121.53 5.88L121.53 5.88ZM130.98 4.62L130.98 4.62Q132.09 4.62 132.97 5.12L132.97 5.12L132.97 5.12Q133.84 5.61 134.34 6.50L134.34 6.50L134.34 6.50Q134.83 7.38 134.83 8.51L134.83 8.51L134.83 11.54L134.83 11.54Q134.83 12.64 134.34 13.55L134.34 13.55L134.34 13.55Q133.85 14.46 132.97 14.99L132.97 14.99L132.97 14.99Q132.08 15.51 130.96 15.51L130.96 15.51L130.96 15.51Q129.95 15.51 129.08 15.11L129.08 15.11L129.08 15.11Q128.21 14.71 127.62 13.97L127.62 13.97L127.62 13.97Q127.47 13.78 127.47 13.58L127.47 13.58L127.47 13.58Q127.47 13.29 127.76 13.08L127.76 13.08L127.76 13.08Q127.96 12.95 128.16 12.95L128.16 12.95L128.16 12.95Q128.51 12.95 128.73 13.24L128.73 13.24L128.73 13.24Q129.11 13.73 129.68 13.99L129.68 13.99L129.68 13.99Q130.26 14.25 130.98 14.25L130.98 14.25L130.98 14.25Q131.67 14.25 132.23 13.92L132.23 13.92L132.23 13.92Q132.79 13.59 133.13 12.96L133.13 12.96L133.13 12.96Q133.46 12.32 133.46 11.44L133.46 11.44L133.46 10.75L133.46 10.75Q133.03 11.52 132.31 11.96L132.31 11.96L132.31 11.96Q131.60 12.39 130.70 12.39L130.70 12.39L130.70 12.39Q129.67 12.39 128.85 11.89L128.85 11.89L128.85 11.89Q128.03 11.40 127.58 10.51L127.58 10.51L127.58 10.51Q127.12 9.63 127.12 8.51L127.12 8.51L127.12 8.51Q127.12 7.38 127.61 6.50L127.61 6.50L127.61 6.50Q128.10 5.61 128.98 5.12L128.98 5.12L128.98 5.12Q129.86 4.62 130.98 4.62L130.98 4.62ZM130.98 11.13L130.98 11.13Q131.70 11.13 132.27 10.79L132.27 10.79L132.27 10.79Q132.83 10.46 133.15 9.86L133.15 9.86L133.15 9.86Q133.46 9.27 133.46 8.51L133.46 8.51L133.46 8.51Q133.46 7.76 133.15 7.15L133.15 7.15L133.15 7.15Q132.83 6.55 132.27 6.22L132.27 6.22L132.27 6.22Q131.70 5.88 130.98 5.88L130.98 5.88L130.98 5.88Q130.27 5.88 129.70 6.22L129.70 6.22L129.70 6.22Q129.14 6.55 128.81 7.15L128.81 7.15L128.81 7.15Q128.49 7.76 128.49 8.51L128.49 8.51L128.49 8.51Q128.49 9.27 128.81 9.86L128.81 9.86L128.81 9.86Q129.14 10.46 129.70 10.79L129.70 10.79L129.70 10.79Q130.27 11.13 130.98 11.13L130.98 11.13ZM140.43 4.62L140.43 4.62Q141.54 4.62 142.42 5.12L142.42 5.12L142.42 5.12Q143.29 5.61 143.79 6.50L143.79 6.50L143.79 6.50Q144.28 7.38 144.28 8.51L144.28 8.51L144.28 11.54L144.28 11.54Q144.28 12.64 143.79 13.55L143.79 13.55L143.79 13.55Q143.30 14.46 142.42 14.99L142.42 14.99L142.42 14.99Q141.53 15.51 140.41 15.51L140.41 15.51L140.41 15.51Q139.40 15.51 138.53 15.11L138.53 15.11L138.53 15.11Q137.66 14.71 137.07 13.97L137.07 13.97L137.07 13.97Q136.92 13.78 136.92 13.58L136.92 13.58L136.92 13.58Q136.92 13.29 137.21 13.08L137.21 13.08L137.21 13.08Q137.41 12.95 137.61 12.95L137.61 12.95L137.61 12.95Q137.96 12.95 138.18 13.24L138.18 13.24L138.18 13.24Q138.56 13.73 139.13 13.99L139.13 13.99L139.13 13.99Q139.71 14.25 140.43 14.25L140.43 14.25L140.43 14.25Q141.12 14.25 141.68 13.92L141.68 13.92L141.68 13.92Q142.24 13.59 142.58 12.96L142.58 12.96L142.58 12.96Q142.91 12.32 142.91 11.44L142.91 11.44L142.91 10.75L142.91 10.75Q142.48 11.52 141.76 11.96L141.76 11.96L141.76 11.96Q141.05 12.39 140.15 12.39L140.15 12.39L140.15 12.39Q139.12 12.39 138.30 11.89L138.30 11.89L138.30 11.89Q137.48 11.40 137.03 10.51L137.03 10.51L137.03 10.51Q136.57 9.63 136.57 8.51L136.57 8.51L136.57 8.51Q136.57 7.38 137.06 6.50L137.06 6.50L137.06 6.50Q137.55 5.61 138.43 5.12L138.43 5.12L138.43 5.12Q139.31 4.62 140.43 4.62L140.43 4.62ZM140.43 11.13L140.43 11.13Q141.15 11.13 141.72 10.79L141.72 10.79L141.72 10.79Q142.28 10.46 142.60 9.86L142.60 9.86L142.60 9.86Q142.91 9.27 142.91 8.51L142.91 8.51L142.91 8.51Q142.91 7.76 142.60 7.15L142.60 7.15L142.60 7.15Q142.28 6.55 141.72 6.22L141.72 6.22L141.72 6.22Q141.15 5.88 140.43 5.88L140.43 5.88L140.43 5.88Q139.72 5.88 139.15 6.22L139.15 6.22L139.15 6.22Q138.59 6.55 138.26 7.15L138.26 7.15L138.26 7.15Q137.94 7.76 137.94 8.51L137.94 8.51L137.94 8.51Q137.94 9.27 138.26 9.86L138.26 9.86L138.26 9.86Q138.59 10.46 139.15 10.79L139.15 10.79L139.15 10.79Q139.72 11.13 140.43 11.13L140.43 11.13ZM152.26 4.75L152.26 4.75Q152.70 4.91 152.70 5.29L152.70 5.29L152.70 5.29Q152.70 5.43 152.61 5.63L152.61 5.63L148.33 15.26L148.33 15.26Q148.16 15.69 147.78 15.69L147.78 15.69L147.78 15.69Q147.64 15.69 147.45 15.61L147.45 15.61L147.45 15.61Q147.03 15.43 147.03 15.06L147.03 15.06L147.03 15.06Q147.03 14.90 147.11 14.73L147.11 14.73L148.51 11.58L145.36 5.60L145.36 5.60Q145.29 5.47 145.29 5.31L145.29 5.31L145.29 5.31Q145.29 5.12 145.40 4.97L145.40 4.97L145.40 4.97Q145.52 4.82 145.70 4.73L145.70 4.73L145.70 4.73Q145.82 4.68 145.98 4.68L145.98 4.68L145.98 4.68Q146.37 4.68 146.57 5.07L146.57 5.07L149.13 10.16L151.38 5.08L151.38 5.08Q151.56 4.68 151.93 4.68L151.93 4.68L151.93 4.68Q152.11 4.68 152.26 4.75L152.26 4.75ZM157.77 1.27L157.77 1.27Q158.97 1.27 159.80 1.76L159.80 1.76L159.80 1.76Q160.62 2.25 161.20 3.16L161.20 3.16L161.20 3.16Q161.36 3.43 161.36 3.67L161.36 3.67L161.36 3.67Q161.36 3.98 161.08 4.17L161.08 4.17L161.08 4.17Q160.93 4.27 160.72 4.27L160.72 4.27L160.72 4.27Q160.51 4.27 160.33 4.16L160.33 4.16L160.33 4.16Q160.15 4.06 160.05 3.88L160.05 3.88L160.05 3.88Q159.67 3.25 159.10 2.92L159.10 2.92L159.10 2.92Q158.54 2.59 157.67 2.59L157.67 2.59L157.67 2.59Q156.60 2.59 155.95 3.00L155.95 3.00L155.95 3.00Q155.29 3.42 155.29 4.20L155.29 4.20L155.29 4.20Q155.29 4.93 155.88 5.42L155.88 5.42L155.88 5.42Q156.46 5.91 157.98 6.06L157.98 6.06L157.98 6.06Q159.66 6.23 160.58 7.08L160.58 7.08L160.58 7.08Q161.50 7.92 161.50 9.31L161.50 9.31L161.50 9.31Q161.50 10.32 160.96 11.04L160.96 11.04L160.96 11.04Q160.41 11.76 159.51 12.12L159.51 12.12L159.51 12.12Q158.61 12.47 157.57 12.47L157.57 12.47L157.57 12.47Q156.21 12.47 155.10 11.86L155.10 11.86L155.10 11.86Q153.99 11.24 153.57 10.25L153.57 10.25L153.57 10.25Q153.50 10.08 153.50 9.97L153.50 9.97L153.50 9.97Q153.50 9.76 153.65 9.60L153.65 9.60L153.65 9.60Q153.80 9.44 154.07 9.38L154.07 9.38L154.07 9.38Q154.11 9.37 154.21 9.37L154.21 9.37L154.21 9.37Q154.43 9.37 154.64 9.50L154.64 9.50L154.64 9.50Q154.84 9.63 154.94 9.86L154.94 9.86L154.94 9.86Q155.19 10.40 155.93 10.78L155.93 10.78L155.93 10.78Q156.67 11.16 157.57 11.16L157.57 11.16L157.57 11.16Q158.62 11.16 159.35 10.67L159.35 10.67L159.35 10.67Q160.08 10.19 160.08 9.35L160.08 9.35L160.08 9.35Q160.08 8.55 159.46 7.99L159.46 7.99L159.46 7.99Q158.84 7.42 157.58 7.29L157.58 7.29L157.58 7.29Q155.85 7.13 154.85 6.28L154.85 6.28L154.85 6.28Q153.86 5.43 153.86 4.16L153.86 4.16L153.86 4.16Q153.86 3.26 154.37 2.61L154.37 2.61L154.37 2.61Q154.88 1.96 155.77 1.62L155.77 1.62L155.77 1.62Q156.66 1.27 157.77 1.27L157.77 1.27ZM163.73 5.39L163.73 5.39Q163.73 5.07 163.93 4.87L163.93 4.87L163.93 4.87Q164.14 4.68 164.44 4.68L164.44 4.68L164.44 4.68Q164.77 4.68 164.96 4.87L164.96 4.87L164.96 4.87Q165.16 5.07 165.16 5.39L165.16 5.39L165.16 11.62L165.16 11.62Q165.16 11.93 164.96 12.13L164.96 12.13L164.96 12.13Q164.77 12.33 164.44 12.33L164.44 12.33L164.44 12.33Q164.14 12.33 163.93 12.13L163.93 12.13L163.93 12.13Q163.73 11.93 163.73 11.62L163.73 11.62L163.73 5.39ZM164.44 1.58L164.44 1.58Q164.82 1.58 165.09 1.85L165.09 1.85L165.09 1.85Q165.37 2.13 165.37 2.51L165.37 2.51L165.37 2.51Q165.37 2.88 165.09 3.16L165.09 3.16L165.09 3.16Q164.82 3.43 164.44 3.43L164.44 3.43L164.44 3.43Q164.07 3.43 163.79 3.16L163.79 3.16L163.79 3.16Q163.52 2.88 163.52 2.51L163.52 2.51L163.52 2.51Q163.52 2.13 163.79 1.85L163.79 1.85L163.79 1.85Q164.07 1.58 164.44 1.58L164.44 1.58ZM171.08 10.93L171.08 10.93Q171.33 10.93 171.51 11.13L171.51 11.13L171.51 11.13Q171.68 11.33 171.68 11.63L171.68 11.63L171.68 11.63Q171.68 11.94 171.45 12.14L171.45 12.14L171.45 12.14Q171.22 12.33 170.86 12.33L170.86 12.33L170.60 12.33L170.60 12.33Q169.92 12.33 169.35 11.98L169.35 11.98L169.35 11.98Q168.78 11.62 168.46 11.00L168.46 11.00L168.46 11.00Q168.14 10.39 168.14 9.62L168.14 9.62L168.14 6.16L167.50 6.16L167.50 6.16Q167.20 6.16 167.02 5.99L167.02 5.99L167.02 5.99Q166.84 5.82 166.84 5.57L166.84 5.57L166.84 5.57Q166.84 5.29 167.02 5.12L167.02 5.12L167.02 5.12Q167.20 4.96 167.50 4.96L167.50 4.96L168.14 4.96L168.14 2.94L168.14 2.94Q168.14 2.63 168.34 2.44L168.34 2.44L168.34 2.44Q168.53 2.24 168.84 2.24L168.84 2.24L168.84 2.24Q169.15 2.24 169.34 2.44L169.34 2.44L169.34 2.44Q169.54 2.63 169.54 2.94L169.54 2.94L169.54 4.96L170.73 4.96L170.73 4.96Q171.02 4.96 171.21 5.12L171.21 5.12L171.21 5.12Q171.39 5.29 171.39 5.57L171.39 5.57L171.39 5.57Q171.39 5.82 171.21 5.99L171.21 5.99L171.21 5.99Q171.02 6.16 170.73 6.16L170.73 6.16L169.54 6.16L169.54 9.62L169.54 9.62Q169.54 10.18 169.85 10.56L169.85 10.56L169.85 10.56Q170.16 10.93 170.60 10.93L170.60 10.93L171.08 10.93ZM176.69 10.93L176.69 10.93Q176.95 10.93 177.12 11.13L177.12 11.13L177.12 11.13Q177.30 11.33 177.30 11.63L177.30 11.63L177.30 11.63Q177.30 11.94 177.07 12.14L177.07 12.14L177.07 12.14Q176.83 12.33 176.47 12.33L176.47 12.33L176.22 12.33L176.22 12.33Q175.53 12.33 174.97 11.98L174.97 11.98L174.97 11.98Q174.40 11.62 174.08 11.00L174.08 11.00L174.08 11.00Q173.75 10.39 173.75 9.62L173.75 9.62L173.75 6.16L173.11 6.16L173.11 6.16Q172.82 6.16 172.63 5.99L172.63 5.99L172.63 5.99Q172.45 5.82 172.45 5.57L172.45 5.57L172.45 5.57Q172.45 5.29 172.63 5.12L172.63 5.12L172.63 5.12Q172.82 4.96 173.11 4.96L173.11 4.96L173.75 4.96L173.75 2.94L173.75 2.94Q173.75 2.63 173.95 2.44L173.95 2.44L173.95 2.44Q174.15 2.24 174.45 2.24L174.45 2.24L174.45 2.24Q174.76 2.24 174.96 2.44L174.96 2.44L174.96 2.44Q175.15 2.63 175.15 2.94L175.15 2.94L175.15 4.96L176.34 4.96L176.34 4.96Q176.64 4.96 176.82 5.12L176.82 5.12L176.82 5.12Q177.00 5.29 177.00 5.57L177.00 5.57L177.00 5.57Q177.00 5.82 176.82 5.99L176.82 5.99L176.82 5.99Q176.64 6.16 176.34 6.16L176.34 6.16L175.15 6.16L175.15 9.62L175.15 9.62Q175.15 10.18 175.46 10.56L175.46 10.56L175.46 10.56Q175.77 10.93 176.22 10.93L176.22 10.93L176.69 10.93ZM179.19 5.39L179.19 5.39Q179.19 5.07 179.39 4.87L179.39 4.87L179.39 4.87Q179.59 4.68 179.90 4.68L179.90 4.68L179.90 4.68Q180.22 4.68 180.42 4.87L180.42 4.87L180.42 4.87Q180.61 5.07 180.61 5.39L180.61 5.39L180.61 11.62L180.61 11.62Q180.61 11.93 180.42 12.13L180.42 12.13L180.42 12.13Q180.22 12.33 179.90 12.33L179.90 12.33L179.90 12.33Q179.59 12.33 179.39 12.13L179.39 12.13L179.39 12.13Q179.19 11.93 179.19 11.62L179.19 11.62L179.19 5.39ZM179.90 1.58L179.90 1.58Q180.28 1.58 180.55 1.85L180.55 1.85L180.55 1.85Q180.82 2.13 180.82 2.51L180.82 2.51L180.82 2.51Q180.82 2.88 180.55 3.16L180.55 3.16L180.55 3.16Q180.28 3.43 179.90 3.43L179.90 3.43L179.90 3.43Q179.52 3.43 179.25 3.16L179.25 3.16L179.25 3.16Q178.98 2.88 178.98 2.51L178.98 2.51L178.98 2.51Q178.98 2.13 179.25 1.85L179.25 1.85L179.25 1.85Q179.52 1.58 179.90 1.58L179.90 1.58ZM187.08 4.61L187.08 4.61Q188.05 4.61 188.82 5.03L188.82 5.03L188.82 5.03Q189.59 5.45 190.02 6.25L190.02 6.25L190.02 6.25Q190.46 7.06 190.46 8.19L190.46 8.19L190.46 11.63L190.46 11.63Q190.46 11.94 190.25 12.14L190.25 12.14L190.25 12.14Q190.05 12.35 189.74 12.35L189.74 12.35L189.74 12.35Q189.43 12.35 189.23 12.14L189.23 12.14L189.23 12.14Q189.03 11.94 189.03 11.63L189.03 11.63L189.03 8.19L189.03 8.19Q189.03 7.06 188.42 6.47L188.42 6.47L188.42 6.47Q187.81 5.89 186.80 5.89L186.80 5.89L186.80 5.89Q186.21 5.89 185.73 6.13L185.73 6.13L185.73 6.13Q185.25 6.37 184.98 6.78L184.98 6.78L184.98 6.78Q184.70 7.18 184.70 7.69L184.70 7.69L184.70 11.63L184.70 11.63Q184.70 11.94 184.51 12.14L184.51 12.14L184.51 12.14Q184.31 12.35 183.99 12.35L183.99 12.35L183.99 12.35Q183.68 12.35 183.48 12.14L183.48 12.14L183.48 12.14Q183.27 11.94 183.27 11.63L183.27 11.63L183.27 5.39L183.27 5.39Q183.27 5.07 183.48 4.87L183.48 4.87L183.48 4.87Q183.68 4.68 183.99 4.68L183.99 4.68L183.99 4.68Q184.31 4.68 184.51 4.87L184.51 4.87L184.51 4.87Q184.70 5.07 184.70 5.39L184.70 5.39L184.70 5.54L184.70 5.54Q185.15 5.10 185.77 4.85L185.77 4.85L185.77 4.85Q186.38 4.61 187.08 4.61L187.08 4.61ZM196.29 4.62L196.29 4.62Q197.40 4.62 198.28 5.12L198.28 5.12L198.28 5.12Q199.15 5.61 199.65 6.50L199.65 6.50L199.65 6.50Q200.14 7.38 200.14 8.51L200.14 8.51L200.14 11.54L200.14 11.54Q200.14 12.64 199.65 13.55L199.65 13.55L199.65 13.55Q199.16 14.46 198.28 14.99L198.28 14.99L198.28 14.99Q197.39 15.51 196.27 15.51L196.27 15.51L196.27 15.51Q195.26 15.51 194.39 15.11L194.39 15.11L194.39 15.11Q193.52 14.71 192.93 13.97L192.93 13.97L192.93 13.97Q192.78 13.78 192.78 13.58L192.78 13.58L192.78 13.58Q192.78 13.29 193.07 13.08L193.07 13.08L193.07 13.08Q193.27 12.95 193.47 12.95L193.47 12.95L193.47 12.95Q193.82 12.95 194.04 13.24L194.04 13.24L194.04 13.24Q194.42 13.73 194.99 13.99L194.99 13.99L194.99 13.99Q195.57 14.25 196.29 14.25L196.29 14.25L196.29 14.25Q196.98 14.25 197.54 13.92L197.54 13.92L197.54 13.92Q198.10 13.59 198.44 12.96L198.44 12.96L198.44 12.96Q198.77 12.32 198.77 11.44L198.77 11.44L198.77 10.75L198.77 10.75Q198.34 11.52 197.62 11.96L197.62 11.96L197.62 11.96Q196.91 12.39 196.01 12.39L196.01 12.39L196.01 12.39Q194.98 12.39 194.16 11.89L194.16 11.89L194.16 11.89Q193.34 11.40 192.89 10.51L192.89 10.51L192.89 10.51Q192.43 9.63 192.43 8.51L192.43 8.51L192.43 8.51Q192.43 7.38 192.92 6.50L192.92 6.50L192.92 6.50Q193.41 5.61 194.29 5.12L194.29 5.12L194.29 5.12Q195.17 4.62 196.29 4.62L196.29 4.62ZM196.29 11.13L196.29 11.13Q197.01 11.13 197.58 10.79L197.58 10.79L197.58 10.79Q198.14 10.46 198.46 9.86L198.46 9.86L198.46 9.86Q198.77 9.27 198.77 8.51L198.77 8.51L198.77 8.51Q198.77 7.76 198.46 7.15L198.46 7.15L198.46 7.15Q198.14 6.55 197.58 6.22L197.58 6.22L197.58 6.22Q197.01 5.88 196.29 5.88L196.29 5.88L196.29 5.88Q195.58 5.88 195.01 6.22L195.01 6.22L195.01 6.22Q194.45 6.55 194.12 7.15L194.12 7.15L194.12 7.15Q193.80 7.76 193.80 8.51L193.80 8.51L193.80 8.51Q193.80 9.27 194.12 9.86L194.12 9.86L194.12 9.86Q194.45 10.46 195.01 10.79L195.01 10.79L195.01 10.79Q195.58 11.13 196.29 11.13L196.29 11.13Z"></path></g><defs data-v-423bf9ae=""><linearGradient data-v-423bf9ae="" gradientTransform="rotate(25)" id="6dcac2b3-cca9-41ca-bf74-ad4aa4c6d036" x1="0%" y1="0%" x2="100%" y2="0%"><stop data-v-423bf9ae="" offset="0%" style="stop-color: rgb(23, 119, 117); stop-opacity: 1;"></stop><stop data-v-423bf9ae="" offset="100%" style="stop-color: rgb(40, 210, 191); stop-opacity: 1;"></stop></linearGradient></defs><g data-v-423bf9ae="" id="94da5251-6f8b-4668-b4f5-bd10d16402b2" transform="matrix(1.22789263850234,0,0,1.22789263850234,354.6299911410434,-17.361573986042792)" stroke="none" fill="url(#6dcac2b3-cca9-41ca-bf74-ad4aa4c6d036)"><path d="M53.072 88.047c-4.765 0-9.579-.954-14.431-2.869l-.376-.147a3217.852 3217.852 0 0 1-10.317-4.045c-9.283-1.075-8.824-15.532-8.689-17.854-3.225-9.899.445-20.581 2.582-25.486-4.04 1.274-6.828 4.274-4.925 17.287.838 5.731.168 8.923-2.11 10.044-3.475 1.706-8.602-3.177-9.846-4.442-1.85-1.276-5.533-4.774-3.08-11.243 2.268-5.976 8.055-16.97 8.298-17.435 4.101-6.451 10.567-7.381 12.446-7.514 2.712-2.077 7.747-4.326 7.97-4.427 12.163-5.381 27.921-4.755 29.885-4.652 13.057-2.491 19.971 4.877 20.259 5.194a1.4 1.4 0 0 1-2.065 1.893c-.267-.288-6.282-6.575-17.827-4.305l-.176.034-.18-.012c-.164-.011-16.681-.937-28.76 4.408-.052.023-5.403 2.414-7.692 4.321l-.39.324h-.506c-.269.001-6.711.116-10.544 6.139-.001.014-5.894 11.209-8.098 17.024-1.646 4.339.254 6.747 2.141 8.006l.228.191c2.261 2.331 5.569 4.545 6.703 3.981.154-.076 1.48-.921.574-7.124-2.507-17.136 2.777-19.633 9.946-21.115l2.967-.615-1.455 2.658c-.076.143-7.67 14.23-3.604 26.235l.092.271-.022.288c-.011.144-1.025 14.472 6.343 15.158l.384.091c.002 0 6.784 2.673 10.483 4.109l.391.153c12.08 4.768 23.963 3.11 35.317-4.926l.191-.137.228-.065c.268-.076 6.603-1.9 12.059-2.111 3.931-.15 8.733-11.566 8.733-17.111 0-4.821-1.256-11.813-2.429-16.749a1.396 1.396 0 0 1 1.036-1.685 1.398 1.398 0 0 1 1.688 1.036C97.083 43.293 99 51.846 99 58.221c0 5.646-4.945 19.66-11.425 19.909-4.573.178-10.016 1.623-11.167 1.942-7.576 5.313-15.385 7.975-23.336 7.975z"></path><path d="M86.348 53.503a3.65 3.65 0 0 1-.389-.021c-2.121-.243-3.73-2.33-4.923-6.384-.914-3.107-1.352-5.251-1.672-6.815-.755-3.685-.889-4.35-5.586-9.045-4.018-4.019-3.771-6.707-3.679-7.206a1.404 1.404 0 0 1 1.629-1.127c.76.139 1.265.868 1.127 1.629v-.001c.005 0-.054 1.768 2.903 4.725 5.097 5.098 5.493 6.279 6.35 10.464a72.26 72.26 0 0 0 1.614 6.587c1.186 4.034 2.335 4.364 2.554 4.391.626.081 1.636-.926 2.245-1.821-.085-1.229.389-3.497 3.534-6.837 2.295-2.44 3.088-5.224 3.212-6.299-1.049-.919-2.689-2.965-3.728-6.08-1.093-3.273-1.987-3.915-4.498-4.417-3.104-.621-17.197-4.588-17.795-4.756a1.401 1.401 0 0 1 .758-2.698c.146.041 14.587 4.107 17.586 4.707 3.706.74 5.25 2.207 6.606 6.277 1.036 3.109 2.705 4.747 3.063 4.986.193.091.649.418.781 1.162.247 1.373-.684 5.565-3.947 9.035-3.019 3.207-2.773 4.777-2.77 4.791l.194.589-.311.519c-.216.388-2.136 3.645-4.858 3.645zM19.233 60.238c-.075 0-.152-.007-.23-.02-1.554-.258-3.426-1.866-3.785-2.187a1.397 1.397 0 0 1-.116-1.975 1.404 1.404 0 0 1 1.978-.119c.75.666 1.89 1.435 2.385 1.519a1.401 1.401 0 0 1-.232 2.782zM50.229 64.867c-1.632 0-2.343-.842-2.623-1.346-.71-1.277-.301-3.065 1.289-5.629l.187-.298.304-.177c.131-.075 3.227-1.839 6.63-1.839 1.507 0 2.86.342 4.028 1.018 2.93 1.695 2.593 3.935 2.418 4.58-.468 1.743-2.302 3.007-3.953 2.705l-1.191.397c-.156.052-1.557.508-2.779.508-.752 0-1.34-.167-1.797-.511l-.361-.271c-.042.055-.084.115-.131.177l-.294.408-.487.126a5.113 5.113 0 0 1-1.24.152zm-.155-2.805c.066.005.17.008.263.003.987-1.259 1.797-1.803 2.647-1.803.505 0 .977.205 1.327.575.302.321.473.729.568 1.129.094-.009.191-.022.287-.038-.111-.638-.073-1.127.26-1.57l.419-.557.769-.034c.602 0 1.007.315 1.518.715.246.191.556.434.925.663.156-.019.594-.298.7-.694.164-.611-.727-1.203-1.116-1.429-.735-.426-1.617-.642-2.625-.642-2.101 0-4.18.933-4.935 1.31-.823 1.388-.981 2.089-1.007 2.372z"></path><path d="M41.429 87.309c-2.432 0-4.732-1.4-6.854-4.172-1.789-2.342-2.426-4.974-1.892-7.827 1.719-9.166 15.274-17.523 15.852-17.873a1.4 1.4 0 1 1 1.457 2.391c-.13.079-13.07 8.06-14.556 16.001-.387 2.066.061 3.9 1.365 5.607 1.692 2.214 3.394 3.238 5.051 3.048 3.477-.402 6.646-5.849 7.572-7.914.041-.135 2.134-6.064 6.544-6.918 2.582-.498 5.251.812 7.929 3.901 3.484 4.021 7.013 5.849 9.424 4.897 2.124-.839 3.296-3.923 3.133-8.248-.359-9.53-16.044-10.985-16.202-10.998a1.4 1.4 0 0 1-1.276-1.514 1.397 1.397 0 0 1 1.513-1.277c.748.063 18.312 1.683 18.765 13.684.213 5.651-1.574 9.645-4.903 10.96-3.628 1.428-8.206-.638-12.568-5.67-1.976-2.278-3.756-3.278-5.282-2.985-2.794.54-4.455 5.151-4.472 5.198-.208.477-4.081 8.992-9.848 9.665-.252.03-.503.044-.752.044z"></path><path d="M57.512 85.559a7.83 7.83 0 0 1-.406-.01c-4.989-.225-8.043-4.544-8.17-4.728a1.4 1.4 0 1 1 2.299-1.6c.024.033 2.421 3.381 6.018 3.531 2.676.102 5.426-1.526 8.216-4.863a1.4 1.4 0 1 1 2.147 1.798c-3.261 3.897-6.658 5.872-10.104 5.872zM56.256 72.167a1.4 1.4 0 0 1-1.316-1.879c.522-1.437-.126-3.677-.396-4.349a1.4 1.4 0 1 1 2.601-1.039c.146.366 1.404 3.656.427 6.346a1.4 1.4 0 0 1-1.316.921zM29.928 73.813a1.39 1.39 0 0 1-.828-.273c-7.688-5.651-4.956-15.688-4.837-16.112a1.401 1.401 0 0 1 2.696.761c-.102.366-2.301 8.61 3.8 13.096.624.459.757 1.335.3 1.958-.276.372-.702.57-1.131.57zM81.764 68.466a1.4 1.4 0 0 1-.778-2.565c4.305-2.871 4.722-9.341 4.725-9.405a1.392 1.392 0 0 1 1.479-1.318 1.401 1.401 0 0 1 1.318 1.478c-.019.322-.514 7.939-5.969 11.576a1.395 1.395 0 0 1-.775.234zM31.572 34.114a1.4 1.4 0 0 1-1.385-1.201 1.398 1.398 0 0 1 1.184-1.583c.039-.007 2.47-.395 4.15-2.073a1.398 1.398 0 0 1 1.979 0 1.398 1.398 0 0 1 0 1.98c-2.359 2.358-5.593 2.844-5.729 2.863-.065.01-.133.014-.199.014zM66.541 32.881c-2.446 0-6.415-3.777-7.572-4.935a1.398 1.398 0 0 1 0-1.979 1.398 1.398 0 0 1 1.98 0c2.155 2.152 4.822 4.113 5.592 4.113a1.402 1.402 0 0 1 0 2.801zM48.234 38.229a1.404 1.404 0 0 1-1.373-1.126c-.214-1.068-.594-5.041-.638-5.489a1.4 1.4 0 0 1 1.261-1.527 1.397 1.397 0 0 1 1.527 1.262c.163 1.707.456 4.502.595 5.205a1.4 1.4 0 0 1-1.372 1.675z"></path><path d="M38.36 68.876a1.4 1.4 0 0 1-1.38-1.17c-.064-.391-1.475-9.616 8.639-16.213 9.199-5.998 14.146-1.707 15.771-.299.14.121.249.222.336.282.067.023.597.175 1.022.295 3.223.919 10.773 3.072 11.56 9.359a1.4 1.4 0 1 1-2.779.347c-.558-4.45-6.63-6.181-9.549-7.013-.946-.271-1.379-.399-1.714-.599-.17-.103-.41-.296-.711-.556-1.488-1.292-4.979-4.315-12.406.528-8.596 5.606-7.418 13.328-7.405 13.404a1.4 1.4 0 0 1-1.15 1.612c-.08.016-.157.023-.234.023z"></path><path d="M47.002 52.833a1.398 1.398 0 0 1-1.397-1.51c.007-.096.275-4.243-2.059-5.948-1.57-1.149-4.106-1.026-7.538.362-2.938 1.188-5.807 2.027-6.884.145-1.49-2.603 3.748-7.125 4.574-7.812 2.225-2.344 7.784-5.831 13.376-2.664 4.341 2.459 5.254.895 6.061-.487.112-.192.214-.366.312-.511.381-.575 3.969-5.453 12.179-.419.006 0 1.608.823 4.205.823 1.943 0 3.545 1.339 4.18 3.494.502 1.704.309 3.874-1.253 4.882-.995.642-2.726.932-5.359-1.282-1.288-.655-4.724-1.987-7.1-1.229-.972.311-1.683.938-2.172 1.921-2.306 4.61-2.186 4.74-.724 6.331l.301.328a1.4 1.4 0 0 1-.095 1.979 1.399 1.399 0 0 1-1.978-.095l-.289-.316c-2.483-2.703-2.445-4.03.278-9.479.837-1.673 2.127-2.797 3.835-3.34 4.1-1.299 9.178 1.383 9.393 1.497l.251.174c1.376 1.186 2.073 1.205 2.139 1.158.146-.094.356-.818.085-1.736-.101-.349-.512-1.485-1.492-1.485-3.409 0-5.527-1.157-5.616-1.206-6.03-3.695-8.209-.789-8.438-.446-.069.104-.143.23-.222.367-.852 1.46-3.112 5.342-9.862 1.515-5.146-2.915-9.962 2.152-10.008 2.205l-.173.154c-1.392 1.07-2.929 2.842-3.566 3.912.565-.106 1.505-.363 3.012-.974 4.399-1.777 7.848-1.783 10.252-.019 3.607 2.65 3.204 8.189 3.186 8.424a1.398 1.398 0 0 1-1.394 1.287z"></path><path d="M59.549 52.625a1.4 1.4 0 0 1-1.329-1.841c.502-1.521.891-4.117.181-5.131-.747-1.067-.569-1.846-.289-2.311.671-1.113 2.022-.944 3.592-.747.857.108 2.033.259 2.584.09a1.4 1.4 0 1 1 .806 2.683c-1.121.336-2.511.16-3.738.006l-.039-.006c.753 2.562-.295 5.869-.438 6.299a1.4 1.4 0 0 1-1.33.958zM43.918 54.479a1.4 1.4 0 0 1-1.374-1.68c.137-.69.288-2.681-.634-3.619-.579-.588-1.62-.752-3.093-.482a1.4 1.4 0 1 1-.501-2.756c2.448-.442 4.334-.012 5.602 1.286 2.113 2.163 1.452 5.733 1.37 6.135a1.402 1.402 0 0 1-1.37 1.116z"></path><path d="M70.038 57.563c-.4 0-1.005 0-7.508-3.901l-.889-.533.249-1.006c.062-.25 1.575-6.125 6.289-6.125 1.287 0 2.651.465 4.06 1.381 1.936 1.256 2.676 3.228 2.03 5.405-.607 2.043-2.809 4.779-4.231 4.779zm-5.096-5.725c1.942 1.148 3.983 2.303 4.932 2.767.673-.63 1.8-2.082 1.824-3.303.008-.43-.096-.997-.984-1.576-.946-.613-1.799-.927-2.534-.927-1.717 0-2.752 1.857-3.238 3.039zM39.471 61.082l-.553-.023c-.391-.017-3.867-.236-5.065-2.736-.81-1.691-.295-3.805 1.53-6.281 1.065-1.445 2.62-2.241 4.381-2.241 2.225 0 4.519 1.299 5.336 3.023.499 1.055.389 2.145-.307 2.992-1.906 2.332-4.78 4.805-4.902 4.908l-.42.358zm.293-8.481c-.873 0-1.587.372-2.125 1.103-1.112 1.51-1.571 2.751-1.262 3.406.299.626 1.361.963 2.141 1.092.863-.771 2.783-2.539 4.109-4.159-.055-.285-1.28-1.442-2.863-1.442z"></path><path d="M68.324 54.948c-.25 0-.523-.025-.823-.086l-.381-.076-.287-.26c-.432-.395-1.819-1.795-1.567-3.348.076-.471.376-1.337 1.53-1.85.937-.415 1.517-.627 2.082-.627 1.334 0 1.771 1.102 2.007 1.694.379.946.516 2.306-.204 3.368-.517.766-1.354 1.185-2.357 1.185zM39.989 58.507c-.45 0-.874-.093-1.226-.268-.11-.057-.231-.098-.352-.143-.721-.268-2.634-.98-2.035-3.677l.081-.36.246-.273c.207-.231 1.317-1.377 2.839-1.377.723 0 1.766.263 2.641 1.51 1.037 1.483.728 2.599.45 3.132-.46.885-1.498 1.456-2.644 1.456zm-.85-3.132c.08.034.176.07.25.098.216.079.431.162.629.263l-.028-.029h.015a3.308 3.308 0 0 0-.114-.181c-.325-.462-.506-.309-.752-.151z"></path></g><!----></svg>